<?xml version="1.0" standalone="no"?>
<!DOCTYPE svg PUBLIC "-//W3C//DTD SVG 20010904//EN"
 "http://www.w3.org/TR/2001/REC-SVG-20010904/DTD/svg10.dtd">
<svg version="1.0" xmlns="http://www.w3.org/2000/svg"
 width="800.000000pt" height="400.000000pt" viewBox="0 0 800.000000 400.000000"
 preserveAspectRatio="xMidYMid meet">

<g transform="translate(0.000000,400.000000) scale(0.100000,-0.100000)"
fill="#000000" stroke="none">
<path d="M3060 3871 c-47 -25 -66 -48 -85 -100 -26 -74 -13 -139 37 -196 l30
-35 -27 -77 c-15 -42 -33 -82 -41 -90 -7 -8 -18 -33 -24 -56 -7 -23 -23 -80
-38 -127 -14 -47 -25 -88 -24 -92 1 -4 -18 -89 -43 -189 -24 -100 -59 -258
-77 -350 -30 -154 -35 -169 -54 -169 -26 0 -81 -36 -106 -70 -10 -14 -23 -51
-30 -82 -16 -77 6 -152 59 -198 l36 -32 2 -337 c2 -352 8 -434 60 -765 14 -88
25 -162 25 -165 0 -3 -14 15 -32 40 -137 192 -270 338 -369 403 -192 126 -376
112 -636 -50 l-72 -45 -46 15 c-62 22 -91 20 -151 -8 -65 -30 -99 -81 -98
-146 0 -25 2 -51 5 -59 5 -18 -87 -72 -116 -68 -11 1 -28 17 -38 37 -16 31
-18 53 -14 180 3 80 14 210 26 290 31 215 31 218 16 230 -17 14 -41 -9 -49
-47 -41 -204 -67 -555 -47 -639 27 -114 91 -140 201 -81 l66 35 37 -19 c63
-33 117 -35 179 -7 87 40 126 124 94 202 -9 21 -14 42 -11 46 12 20 174 106
248 131 135 47 234 36 361 -41 113 -69 290 -270 425 -485 58 -93 76 -153 87
-290 3 -47 19 -120 37 -177 l31 -98 156 0 155 0 22 48 c23 50 24 54 78 342 65
348 102 591 132 860 25 226 25 816 0 1070 -31 322 -78 675 -93 709 -8 19 -18
57 -20 85 -6 52 -18 91 -59 181 -12 28 -30 74 -40 103 l-17 54 26 27 c14 15
33 48 42 74 31 92 -4 183 -86 225 -53 27 -83 27 -130 3z m120 -36 c36 -19 70
-82 70 -130 0 -34 -30 -108 -49 -119 -5 -3 -24 35 -42 84 l-33 90 -16 -43 c-9
-23 -24 -63 -34 -90 -10 -26 -22 -45 -27 -41 -19 11 -49 84 -49 119 0 20 9 53
20 75 33 64 98 87 160 55z m-40 -266 c0 -5 -7 -9 -15 -9 -15 0 -20 12 -9 23 8
8 24 -1 24 -14z m69 -191 c50 -139 67 -210 75 -320 3 -29 11 -96 20 -148 19
-119 51 -400 68 -590 19 -220 16 -738 -6 -945 -32 -307 -91 -678 -170 -1070
l-32 -160 -104 0 -105 0 -22 100 c-12 55 -22 107 -22 115 -1 8 22 -25 51 -75
55 -96 64 -106 84 -98 29 11 19 40 -55 167 -43 74 -73 133 -67 132 6 -1 23
-10 37 -19 37 -24 91 -32 120 -17 13 7 38 13 56 12 37 -2 43 6 48 51 7 71 49
274 61 298 17 34 7 44 -60 59 -130 29 -328 0 -349 -51 -9 -21 -12 -14 -23 51
-61 364 -87 767 -66 1042 7 87 7 87 49 123 43 37 73 104 73 166 0 37 -27 109
-50 134 -19 20 -19 23 20 210 61 301 83 388 101 413 10 13 17 40 17 65 1 49
60 284 104 410 30 85 31 87 63 87 l32 0 52 -142z m-483 -1045 c-3 -10 -13 -76
-22 -148 -9 -71 -18 -132 -20 -134 -2 -2 -11 2 -20 10 -26 22 -54 90 -54 134
0 75 53 155 103 155 13 0 17 -5 13 -17z m88 -63 c9 -22 16 -57 16 -78 0 -42
-28 -110 -54 -131 -18 -15 -18 -23 -1 114 2 17 7 53 11 80 7 48 7 49 -12 35
-18 -14 -18 -14 -5 3 20 25 27 21 45 -23z m-1221 -1199 c15 -5 -1 -22 -83 -84
-55 -43 -105 -75 -110 -72 -25 16 -2 92 38 128 34 31 112 45 155 28z m88 -78
c36 -94 -63 -190 -174 -169 -19 3 -41 12 -50 19 -15 11 -4 22 90 94 60 45 111
82 116 82 4 1 12 -11 18 -26z m1482 -179 c14 -5 14 -20 1 -62 -2 -9 -10 -6
-24 8 -25 25 -62 40 -97 40 -38 0 -94 -30 -106 -58 l-12 -25 -6 24 c-13 45 -9
57 19 67 29 11 201 16 225 6z m-326 -56 c-3 -8 -6 -5 -6 6 -1 11 2 17 5 13 3
-3 4 -12 1 -19z m267 -19 c50 -39 23 -96 -51 -106 -69 -9 -121 59 -75 99 38
33 89 36 126 7z m-219 -174 c4 -30 3 -36 -5 -23 -10 17 -41 161 -39 188 1 19
36 -112 44 -165z m160 25 c16 0 43 7 59 15 16 9 30 14 32 12 8 -7 -10 -87 -20
-87 -6 0 -24 -7 -40 -15 -25 -14 -43 -13 -98 1 -13 4 -38 75 -38 110 0 2 17
-5 37 -16 21 -11 51 -20 68 -20z"/>
<path d="M3001 1969 c-31 -16 -49 -34 -62 -63 -23 -52 -23 -68 0 -114 54 -106
224 -105 272 2 23 52 24 68 0 114 -37 72 -133 100 -210 61z m161 -58 c37 -41
37 -81 -1 -123 -27 -30 -35 -33 -86 -33 -51 0 -59 3 -86 33 -35 39 -38 78 -8
116 29 37 55 47 109 42 34 -3 51 -11 72 -35z"/>
<path d="M4715 3753 c-82 -56 -102 -109 -67 -177 25 -48 53 -247 79 -571 22
-272 26 -1534 5 -1790 -19 -232 -63 -586 -88 -707 -3 -17 -12 -28 -22 -28 -9
0 -40 -11 -69 -24 -61 -29 -101 -87 -109 -162 -5 -41 -1 -58 23 -104 32 -62
80 -95 150 -106 63 -9 143 30 176 87 31 53 43 117 29 157 -8 22 -6 46 5 91 15
58 17 60 42 55 14 -3 34 -16 44 -28 9 -11 31 -38 48 -59 21 -26 44 -41 75 -49
44 -12 45 -13 66 -83 l21 -70 15 35 c8 19 17 62 20 95 2 33 10 67 18 75 26 30
63 126 75 194 36 212 -79 430 -212 401 -18 -4 -51 -25 -75 -47 l-44 -41 5 29
c36 202 51 754 37 1309 -20 767 -55 1250 -102 1415 -15 53 -67 130 -87 130
-10 0 -36 -12 -58 -27z m79 -81 c100 -194 159 -2021 85 -2682 -18 -165 -88
-540 -104 -558 -2 -2 -21 7 -44 20 -30 17 -39 28 -36 43 10 44 35 207 50 320
86 673 84 1908 -5 2581 -11 84 -20 167 -20 186 0 19 -5 39 -12 46 -8 8 -3 19
22 42 40 37 46 37 64 2z m305 -2891 c31 -29 62 -74 81 -112 29 -63 40 -129 20
-129 -5 0 -10 16 -10 35 0 19 -12 59 -26 89 -49 104 -138 164 -205 139 -28
-11 -30 -10 -23 10 3 12 11 27 16 34 16 20 93 -14 147 -66z m-104 -90 c55 -26
118 -92 149 -157 29 -62 30 -67 15 -95 -10 -19 -12 -17 -38 24 -31 47 -86 79
-157 91 -46 8 -54 24 -54 112 0 39 3 44 23 44 12 0 40 -9 62 -19z m-124 -154
c-13 -13 -14 5 -3 43 l7 25 3 -29 c2 -16 -1 -33 -7 -39z m-244 -124 c-3 -16
-8 -45 -12 -65 -12 -62 35 -112 115 -120 28 -2 36 1 47 22 17 33 17 8 -1 -33
-43 -104 -180 -127 -255 -42 -70 80 -43 209 54 251 47 21 58 18 52 -13z m102
-9 c25 -21 30 -31 25 -52 -10 -44 -26 -55 -52 -36 -18 12 -22 25 -22 65 0 27
4 49 9 49 5 0 23 -12 40 -26z m286 -4 c10 -11 14 -20 8 -20 -5 0 -18 9 -28 20
-10 11 -14 20 -8 20 5 0 18 -9 28 -20z"/>
</g>
</svg>
